<?xml version="1.0" encoding="utf-8"?>
<!-- Generator: Adobe Illustrator 23.0.3, SVG Export Plug-In . SVG Version: 6.00 Build 0)  -->
<svg version="1.1" id="Capa_1" xmlns="http://www.w3.org/2000/svg" xmlns:xlink="http://www.w3.org/1999/xlink" x="0px" y="0px"
	 viewBox="0 0 70.2 70.2" style="enable-background:new 0 0 70.2 70.2;" xml:space="preserve">
<style type="text/css">
	.st0{fill:#C11717;}
</style>
<g>
	<g>
		<g>
			<path class="st0" d="M13.2,57H8.8V46H4.4v11H0v13.2h13.2v-4.4h11v-4.4h-11V57z M8.8,65.8H4.4v-4.4h4.4V65.8z"/>
			<path class="st0" d="M13.2,0H0v13.2h4.4v11h4.4v-11h4.4V8.8h11V4.4h-11V0z M8.8,8.8H4.4V4.4h4.4V8.8z"/>
			<path class="st0" d="M57,0v4.4H46v4.4h11v4.4h4.4v11h4.4v-11h4.4V0H57z M65.8,8.8h-4.4V4.4h4.4V8.8z"/>
			<rect x="28.5" y="4.4" class="st0" width="4.4" height="4.4"/>
			<rect x="37.3" y="4.4" class="st0" width="4.4" height="4.4"/>
			<rect x="37.3" y="61.4" class="st0" width="4.4" height="4.4"/>
			<rect x="28.5" y="61.4" class="st0" width="4.4" height="4.4"/>
			<rect x="4.4" y="37.3" class="st0" width="4.4" height="4.4"/>
			<rect x="4.4" y="28.5" class="st0" width="4.4" height="4.4"/>
			<rect x="61.4" y="28.5" class="st0" width="4.4" height="4.4"/>
			<rect x="61.4" y="37.3" class="st0" width="4.4" height="4.4"/>
			<path class="st0" d="M65.8,46h-4.4v11H57v4.4H46v4.4h11v4.4h13.2V57h-4.4V46z M65.8,65.8h-4.4v-4.4h4.4V65.8z"/>
		</g>
	</g>
</g>
</svg>
