<?xml version="1.0" encoding="utf-8"?>
<!-- Generator: Adobe Illustrator 23.0.3, SVG Export Plug-In . SVG Version: 6.00 Build 0)  -->
<svg version="1.1" id="Capa_1" xmlns="http://www.w3.org/2000/svg" xmlns:xlink="http://www.w3.org/1999/xlink" x="0px" y="0px"
	 viewBox="0 0 70.2 70.2" style="enable-background:new 0 0 70.2 70.2;" xml:space="preserve">
<style type="text/css">
	.st0{fill:#C11717;}
</style>
<path class="st0" d="M2.2,68.3h9.7v-3.9H4.1V33.3h7.8v-3.9H4.1V6.1h23.3v23.3h-7.8v3.9H41v11.7h3.9V33.3h7.8v-3.9H31.3V6.1h35v23.3
	h-5.8v3.9h5.8v31.1H44.9V52.7H41v11.7H19.7v3.9h48.6c1.1,0,1.9-0.9,1.9-1.9V4.2c0-1.1-0.9-1.9-1.9-1.9h-66c-1.1,0-1.9,0.9-1.9,1.9
	v62.2C0.2,67.4,1.1,68.3,2.2,68.3z"/>
</svg>
