<?xml version="1.0" encoding="utf-8"?>
<!-- Generator: Adobe Illustrator 23.0.3, SVG Export Plug-In . SVG Version: 6.00 Build 0)  -->
<svg version="1.1" id="Capa_1" xmlns="http://www.w3.org/2000/svg" xmlns:xlink="http://www.w3.org/1999/xlink" x="0px" y="0px"
	 viewBox="0 0 21 21" style="enable-background:new 0 0 21 21;" xml:space="preserve">
<style type="text/css">
	.st0{fill:#C11717;}
</style>
<g>
	<g>
		<path class="st0" d="M18.3,1.9V0.6H8.7v1.3H6.1v5C8.1,7.6,9.6,9.6,9.6,12c0,1.2-0.8,3.3-2.5,6.2c-0.2,0.4-0.5,0.8-0.7,1.2h6.5v-4
			h1.3v4H21V1.9L18.3,1.9z M12.8,14h-2.5v-1.3h2.5V14z M12.8,11.3h-2.5V10h2.5V11.3z M12.8,8.8h-2.5V7.5h2.5V8.8z M12.8,6.2h-2.5
			V4.8h2.5V6.2z M16.9,14h-2.5v-1.3h2.5V14z M16.9,11.3h-2.5V10h2.5V11.3z M16.9,8.8h-2.5V7.5h2.5V8.8z M16.9,6.2h-2.5V4.8h2.5V6.2z
			"/>
	</g>
</g>
<g>
	<g>
		<path class="st0" d="M4.2,10.7c-0.7,0-1.3,0.6-1.3,1.3s0.6,1.3,1.3,1.3s1.3-0.6,1.3-1.3S4.9,10.7,4.2,10.7z"/>
	</g>
</g>
<g>
	<g>
		<path class="st0" d="M4.2,7.8C1.9,7.8,0,9.7,0,12c0,1.8,2.6,6.2,4.2,8.5c1.5-2.3,4.2-6.8,4.2-8.5C8.3,9.7,6.4,7.8,4.2,7.8z
			 M4.2,14.6c-1.4,0-2.6-1.2-2.6-2.6s1.2-2.6,2.6-2.6s2.6,1.2,2.6,2.6S5.6,14.6,4.2,14.6z"/>
	</g>
</g>
</svg>
