<?xml version="1.0" encoding="utf-8"?>
<!-- Generator: Adobe Illustrator 23.0.3, SVG Export Plug-In . SVG Version: 6.00 Build 0)  -->
<svg version="1.1" id="Capa_1" xmlns="http://www.w3.org/2000/svg" xmlns:xlink="http://www.w3.org/1999/xlink" x="0px" y="0px"
	 viewBox="0 0 21 21" style="enable-background:new 0 0 21 21;" xml:space="preserve">
<style type="text/css">
	.st0{fill:#C11717;}
</style>
<path class="st0" d="M20.3,12.7c1.5-6.8-4.4-13-11.4-11.8C5.1-1.4,0.1,1.2,0.1,5.7c0,1,0.3,2,0.8,2.9c-1.4,6.8,4.6,12.9,11.6,11.6
	C17.4,22.9,22.8,17.7,20.3,12.7z M13.7,16.8c-1.8,0.8-4.8,0.8-6.7-0.2c-2.6-1.4-3.1-4.5-0.8-4.5c1.7,0,1.2,2,2.9,2.8
	c0.8,0.4,2.5,0.4,3.4-0.3c1-0.6,0.9-1.7,0.4-2.2c-1.4-1.3-5.4-0.8-7.2-3c-0.8-1-0.9-2.7,0-4c1.7-2.2,6.7-2.3,8.8-0.7
	c2,1.5,1.4,3.6-0.2,3.6c-1.9,0-0.9-2.5-4-2.5c-2.2,0-3.1,1.6-1.5,2.4c2.1,1.1,7.6,0.7,7.6,4.9C16.4,14.8,15.3,16.1,13.7,16.8
	L13.7,16.8z"/>
</svg>
