<?xml version="1.0" encoding="utf-8"?>
<!-- Generator: Adobe Illustrator 23.0.3, SVG Export Plug-In . SVG Version: 6.00 Build 0)  -->
<svg version="1.1" id="Capa_1" xmlns="http://www.w3.org/2000/svg" xmlns:xlink="http://www.w3.org/1999/xlink" x="0px" y="0px"
	 viewBox="0 0 70.2 70.2" style="enable-background:new 0 0 70.2 70.2;" xml:space="preserve">
<style type="text/css">
	.st0{fill:#C11717;}
</style>
<path class="st0" d="M70.2,29c0-0.6-0.5-1.2-1.2-1.2c0,0,0,0,0,0H36.4V11.7l6.9-4.8c1.5-1,1.9-3.1,0.8-4.6c-1-1.5-3.1-1.9-4.6-0.8
	l0,0L3.8,26.1c-1.5,1-1.9,3.1-0.8,4.6c0.5,0.7,1.3,1.2,2.1,1.4c0.2,0,0.4,0.1,0.6,0.1c0.7,0,1.3-0.2,1.9-0.6l5.4-3.7v25.4H1.5
	c-0.6,0-1.2,0.5-1.2,1.2l0,0V67c0,0.6,0.5,1.2,1.2,1.2H69c0.6,0,1.2-0.5,1.2-1.2V29z M29.8,16.3v24.4H19.6V23.3L29.8,16.3z M19.6,43
	h48.2v10.3H19.6V43z M67.8,30.2v10.5H36.4V30.2H67.8z M34.1,40.7h-2v-26l2-1.4V40.7z M6.3,29.7c-0.4,0.3-1.1,0.2-1.4-0.2
	s-0.2-1.1,0.2-1.4c0,0,0.1,0,0.1-0.1L40.9,3.3C41.4,3,42,3.1,42.3,3.6C42.6,4,42.5,4.7,42,5L17.8,21.7L6.3,29.7z M15.3,26.3l2-1.4
	v28.4h-2L15.3,26.3z M67.8,65.9H2.7V55.6h65.2V65.9z"/>
</svg>
