<?xml version="1.0" encoding="utf-8"?>
<!-- Generator: Adobe Illustrator 23.0.3, SVG Export Plug-In . SVG Version: 6.00 Build 0)  -->
<svg version="1.1" id="Capa_1" xmlns="http://www.w3.org/2000/svg" xmlns:xlink="http://www.w3.org/1999/xlink" x="0px" y="0px"
	 viewBox="0 0 49.1 49.1" style="enable-background:new 0 0 49.1 49.1;" xml:space="preserve">
<style type="text/css">
	.st0{fill:#FFFFFF;}
</style>
<g>
	<path class="st0" d="M2.2,15.1c0.9,0,1.7-0.7,1.7-1.7V6.3L14.7,17c0.3,0.3,0.8,0.5,1.2,0.5c0.4,0,0.9-0.2,1.2-0.5
		c0.7-0.7,0.7-1.7,0-2.4L6.3,3.9h7.1c0.9,0,1.7-0.7,1.7-1.7s-0.7-1.7-1.7-1.7H2.2c-0.9,0-1.7,0.7-1.7,1.7v11.1
		C0.6,14.3,1.3,15.1,2.2,15.1z"/>
	<path class="st0" d="M46.8,34c-0.9,0-1.7,0.7-1.7,1.7v7.1L34.1,31.7c-0.7-0.7-1.7-0.7-2.4,0c-0.7,0.7-0.7,1.7,0,2.4l11.1,11.1h-7.1
		c-0.9,0-1.7,0.7-1.7,1.7c0,0.9,0.7,1.7,1.7,1.7h11.1c0.9,0,1.7-0.7,1.7-1.7V35.7C48.5,34.8,47.8,34,46.8,34z"/>
	<path class="st0" d="M15,31.7L3.9,42.8v-7.1c0-0.9-0.7-1.7-1.7-1.7s-1.7,0.7-1.7,1.7v11.1c0,0.9,0.7,1.7,1.7,1.7h11.1
		c0.9,0,1.7-0.7,1.7-1.7s-0.7-1.7-1.7-1.7H6.3l11.1-11.1c0.7-0.7,0.7-1.7,0-2.4C16.7,31.1,15.6,31.1,15,31.7z"/>
	<path class="st0" d="M46.8,0.6H35.7c-0.9,0-1.7,0.7-1.7,1.7s0.7,1.7,1.7,1.7h7.1L32,14.7c-0.7,0.7-0.7,1.7,0,2.4
		c0.3,0.3,0.8,0.5,1.2,0.5c0.4,0,0.9-0.2,1.2-0.5L45.2,6.3v7.1c0,0.9,0.7,1.7,1.7,1.7c0.9,0,1.7-0.7,1.7-1.7V2.2
		C48.5,1.3,47.8,0.6,46.8,0.6z"/>
</g>
</svg>
