<?xml version="1.0" encoding="utf-8"?>
<!-- Generator: Adobe Illustrator 23.0.3, SVG Export Plug-In . SVG Version: 6.00 Build 0)  -->
<svg version="1.1" id="Capa_1" xmlns="http://www.w3.org/2000/svg" xmlns:xlink="http://www.w3.org/1999/xlink" x="0px" y="0px"
	 viewBox="0 0 70.2 70.2" style="enable-background:new 0 0 70.2 70.2;" xml:space="preserve">
<style type="text/css">
	.st0{fill:#C11717;}
</style>
<g>
	<path class="st0" d="M35.1,16.7c-2.8,0-5.1,2.3-5.1,5.1s2.3,5.1,5.1,5.1s5.1-2.3,5.1-5.1S37.9,16.7,35.1,16.7z M35.1,24.9
		c-1.7,0-3.1-1.4-3.1-3.1s1.4-3.1,3.1-3.1c1.7,0,3.1,1.4,3.1,3.1S36.8,24.9,35.1,24.9z"/>
	<path class="st0" d="M69.8,31.4L37.2,0.8c-1.2-1.1-3-1.1-4.2,0L17.5,15.3V9.5c0-0.6-0.5-1-1-1H8.2c-0.6,0-1,0.5-1,1v15.4l-6.9,6.4
		C0.1,31.6,0,31.8,0,32.1v5.6c0,0.4,0.2,0.8,0.6,0.9c0.4,0.2,0.8,0.1,1.1-0.2l2.5-2.3c0.2,0.8,0.7,1.6,1.3,2.2
		c-0.9,0.8-1.4,1.9-1.4,3.1s0.5,2.3,1.4,3.1c-0.9,0.8-1.4,1.9-1.4,3.1c0,1.2,0.5,2.3,1.4,3.1c-0.9,0.8-1.4,1.9-1.4,3.1
		s0.5,2.3,1.4,3.1c-0.9,0.8-1.4,1.9-1.4,3.1c0,1.2,0.5,2.3,1.4,3.1c-0.9,0.8-1.4,1.9-1.4,3.1c0,2.3,1.8,4.1,4.1,4.1h53.7
		c2.3,0,4.1-1.8,4.1-4.1c0-1.2-0.5-2.3-1.4-3.1c0.9-0.8,1.4-1.9,1.4-3.1c0-1.2-0.5-2.3-1.4-3.1c0.9-0.8,1.4-1.9,1.4-3.1
		s-0.5-2.3-1.4-3.1c0.9-0.8,1.4-1.9,1.4-3.1c0-1.2-0.5-2.3-1.4-3.1c0.9-0.8,1.4-1.9,1.4-3.1s-0.5-2.3-1.4-3.1
		c0.6-0.6,1.1-1.3,1.3-2.2l2.5,2.3c0.3,0.3,0.7,0.4,1.1,0.2c0.4-0.2,0.6-0.5,0.6-0.9v-5.6C70.2,31.8,70,31.6,69.8,31.4z M9.3,10.6
		h6.2v6.7L9.3,23V10.6z M8.2,68.1c-1.1,0-2.1-0.9-2.1-2.1S7.1,64,8.2,64s2.1,0.9,2.1,2.1S9.4,68.1,8.2,68.1z M8.2,61.9
		c-1.1,0-2.1-0.9-2.1-2.1c0-1.1,0.9-2.1,2.1-2.1s2.1,0.9,2.1,2.1C10.3,61,9.4,61.9,8.2,61.9z M8.2,55.8c-1.1,0-2.1-0.9-2.1-2.1
		s0.9-2.1,2.1-2.1s2.1,0.9,2.1,2.1S9.4,55.8,8.2,55.8z M8.2,49.6c-1.1,0-2.1-0.9-2.1-2.1c0-1.1,0.9-2.1,2.1-2.1s2.1,0.9,2.1,2.1
		C10.3,48.7,9.4,49.6,8.2,49.6z M8.2,43.4c-1.1,0-2.1-0.9-2.1-2.1s0.9-2.1,2.1-2.1s2.1,0.9,2.1,2.1S9.4,43.4,8.2,43.4z M8.2,37.3
		c-1.1,0-2.1-0.9-2.1-2.1c0-0.6,0.2-1.1,0.6-1.4l0.1-0.1c0.4-0.3,0.9-0.5,1.4-0.5c1.1,0,2.1,0.9,2.1,2.1S9.4,37.3,8.2,37.3z
		 M9.6,31.1L35.1,7.3l25.5,23.8H9.6z M25.8,68.1H11.8c0.4-0.6,0.6-1.3,0.6-2.1s-0.2-1.5-0.6-2.1h14.1V68.1z M25.8,61.9H11.8
		c0.4-0.6,0.6-1.3,0.6-2.1c0-0.7-0.2-1.5-0.6-2.1h14.1V61.9z M25.8,55.8H11.8c0.4-0.6,0.6-1.3,0.6-2.1s-0.2-1.5-0.6-2.1h14.1V55.8z
		 M25.8,49.6H11.8c0.4-0.6,0.6-1.3,0.6-2.1s-0.2-1.5-0.6-2.1h14.1V49.6z M42.3,68.1H27.9V45.5h14.4V68.1z M58.4,68.1H44.3V64h14.1
		c-0.4,0.6-0.6,1.3-0.6,2.1S58,67.5,58.4,68.1z M58.4,61.9H44.3v-4.1h14.1c-0.4,0.6-0.6,1.3-0.6,2.1C57.8,60.6,58,61.3,58.4,61.9z
		 M58.4,55.8H44.3v-4.1h14.1c-0.4,0.6-0.6,1.3-0.6,2.1S58,55.2,58.4,55.8z M58.4,49.6H44.3v-4.1h14.1c-0.4,0.6-0.6,1.3-0.6,2.1
		S58,49,58.4,49.6z M58.4,43.4H11.8c0.4-0.6,0.6-1.3,0.6-2.1s-0.2-1.5-0.6-2.1H17c0.6,0,1-0.5,1-1c0-0.6-0.5-1-1-1h-5.2
		c0.4-0.6,0.6-1.3,0.6-2.1s-0.2-1.5-0.6-2.1h22.3v4.1H21.1c-0.6,0-1,0.5-1,1c0,0.6,0.5,1,1,1h37.2c-0.4,0.6-0.6,1.3-0.6,2.1
		S58,42.8,58.4,43.4z M58.4,37.3H36.1v-4.1h22.3c-0.4,0.6-0.6,1.3-0.6,2.1S58,36.7,58.4,37.3z M61.9,68.1c-1.1,0-2.1-0.9-2.1-2.1
		s0.9-2.1,2.1-2.1s2.1,0.9,2.1,2.1S63.1,68.1,61.9,68.1z M61.9,61.9c-1.1,0-2.1-0.9-2.1-2.1c0-1.1,0.9-2.1,2.1-2.1s2.1,0.9,2.1,2.1
		C64,61,63.1,61.9,61.9,61.9z M61.9,55.8c-1.1,0-2.1-0.9-2.1-2.1s0.9-2.1,2.1-2.1s2.1,0.9,2.1,2.1S63.1,55.8,61.9,55.8z M61.9,49.6
		c-1.1,0-2.1-0.9-2.1-2.1c0-1.1,0.9-2.1,2.1-2.1s2.1,0.9,2.1,2.1C64,48.7,63.1,49.6,61.9,49.6z M61.9,43.4c-1.1,0-2.1-0.9-2.1-2.1
		s0.9-2.1,2.1-2.1s2.1,0.9,2.1,2.1S63.1,43.4,61.9,43.4z M64,35.2c0,1.1-0.9,2.1-2.1,2.1s-2.1-0.9-2.1-2.1s0.9-2.1,2.1-2.1
		c0.5,0,1,0.2,1.4,0.5l0.1,0.1C63.8,34.2,64,34.7,64,35.2L64,35.2z M68.1,35.4L35.8,5.2c-0.2-0.2-0.4-0.3-0.7-0.3S34.6,5,34.4,5.2
		L2.1,35.4v-2.8L34.4,2.3c0.4-0.4,1-0.4,1.4,0l32.3,30.2V35.4z"/>
	<circle class="st0" cx="39.2" cy="56.8" r="1"/>
</g>
</svg>
