<?xml version="1.0" encoding="utf-8"?>
<!-- Generator: Adobe Illustrator 23.0.3, SVG Export Plug-In . SVG Version: 6.00 Build 0)  -->
<svg version="1.1" id="Capa_1" xmlns="http://www.w3.org/2000/svg" xmlns:xlink="http://www.w3.org/1999/xlink" x="0px" y="0px"
	 viewBox="0 0 21 21" style="enable-background:new 0 0 21 21;" xml:space="preserve">
<style type="text/css">
	.st0{fill:#C11717;}
</style>
<g>
	<g>
		<g>
			<path class="st0" d="M20.5,16.6l-3.2-3.3c-0.6-0.6-1.7-0.6-2.4,0L13.3,15c-0.1-0.1-0.2-0.1-0.3-0.2c-1-0.6-2.4-1.4-3.9-2.8
				c-1.5-1.5-2.3-2.9-2.8-3.9C6.1,8,6,7.9,6,7.8l1.1-1.1l0.5-0.5c0.7-0.7,0.7-1.7,0-2.4L4.4,0.5C3.8-0.2,2.7-0.2,2,0.5L1.1,1.4l0,0
				C0.8,1.9,0.6,2.3,0.4,2.8S0.1,3.7,0.1,4.1C-0.4,7.7,1.3,11,5.7,15.4c6.1,6.1,11,5.6,11.2,5.6c0.5-0.1,0.9-0.2,1.4-0.3
				c0.5-0.2,0.9-0.4,1.3-0.8l0,0l0.9-0.9C21.2,18.3,21.2,17.3,20.5,16.6z"/>
		</g>
	</g>
</g>
</svg>
