<?xml version="1.0" encoding="utf-8"?>
<!-- Generator: Adobe Illustrator 23.0.3, SVG Export Plug-In . SVG Version: 6.00 Build 0)  -->
<svg version="1.1" id="Layer_1" xmlns="http://www.w3.org/2000/svg" xmlns:xlink="http://www.w3.org/1999/xlink" x="0px" y="0px"
	 viewBox="0 0 27.6 47" style="enable-background:new 0 0 27.6 47;" xml:space="preserve">
<style type="text/css">
	.st0{fill:#FFFFFF;}
</style>
<g>
	<g>
		<path class="st0" d="M9.3,23.5L26.8,5.9c0.5-0.5,0.7-1.1,0.7-1.8c0-0.7-0.3-1.3-0.7-1.8l-1.5-1.5C24.8,0.3,24.2,0,23.5,0
			s-1.3,0.3-1.8,0.8L0.7,21.7C0.3,22.2,0,22.8,0,23.5c0,0.7,0.3,1.3,0.7,1.8l20.9,20.9c0.5,0.5,1.1,0.8,1.8,0.8
			c0.7,0,1.3-0.3,1.8-0.8l1.5-1.5c1-1,1-2.6,0-3.6L9.3,23.5z"/>
	</g>
</g>
</svg>
