<?xml version="1.0" encoding="utf-8"?>
<!-- Generator: Adobe Illustrator 23.0.3, SVG Export Plug-In . SVG Version: 6.00 Build 0)  -->
<svg version="1.1" id="Capa_1" xmlns="http://www.w3.org/2000/svg" xmlns:xlink="http://www.w3.org/1999/xlink" x="0px" y="0px"
	 viewBox="0 0 21 21" style="enable-background:new 0 0 21 21;" xml:space="preserve">
<style type="text/css">
	.st0{fill:#C11717;}
</style>
<g>
	<g>
		<path class="st0" d="M19.1,18.8c0.5,0,0.9-0.2,1.2-0.5l-5.9-5.9c-0.1,0.1-0.3,0.2-0.4,0.3c-0.4,0.3-0.8,0.6-1.1,0.8
			s-0.6,0.4-1.1,0.6c-0.5,0.2-0.9,0.3-1.3,0.3l0,0l0,0c-0.4,0-0.8-0.1-1.3-0.3s-0.8-0.4-1.1-0.6C7.8,13.2,7.5,13,7,12.6
			c-0.1-0.1-0.3-0.2-0.4-0.3l-6,6c0.3,0.3,0.8,0.5,1.2,0.5H19.1z"/>
		<path class="st0" d="M1.2,8.6C0.7,8.3,0.3,8,0,7.6v9.1l5.2-5.2C4.2,10.6,2.8,9.7,1.2,8.6z"/>
		<path class="st0" d="M19.8,8.6c-1.6,1.1-3,2-4.1,2.8l5.2,5.2v-9C20.7,7.9,20.3,8.3,19.8,8.6z"/>
		<path class="st0" d="M19.1,2.2H1.9c-0.6,0-1.1,0.2-1.4,0.6C0.2,3.3,0,3.8,0,4.4c0,0.5,0.2,1,0.6,1.6C1.1,6.6,1.5,7,2,7.3
			C2.3,7.5,3.1,8.1,4.4,9c0.7,0.5,1.3,0.9,1.9,1.3c0.5,0.3,0.9,0.6,1.2,0.8c0,0,0.1,0.1,0.2,0.1c0.1,0.1,0.2,0.1,0.3,0.2
			c0.3,0.2,0.5,0.3,0.6,0.4C8.8,11.9,9,12,9.2,12.2c0.2,0.1,0.5,0.2,0.7,0.3s0.4,0.1,0.6,0.1l0,0l0,0c0.2,0,0.4,0,0.6-0.1
			c0.2-0.1,0.4-0.2,0.7-0.3c0.2-0.1,0.4-0.3,0.6-0.4c0.2-0.1,0.4-0.3,0.6-0.4c0.1-0.1,0.2-0.2,0.3-0.2c0.1-0.1,0.1-0.1,0.2-0.1
			c0.3-0.2,0.7-0.5,1.2-0.8c1-0.7,2.4-1.7,4.3-3c0.6-0.4,1-0.9,1.4-1.4C20.8,5.3,21,4.7,21,4.1c0-0.5-0.2-1-0.6-1.3
			C20.1,2.4,19.6,2.2,19.1,2.2z"/>
	</g>
</g>
</svg>
