<?xml version="1.0" encoding="utf-8"?>
<!-- Generator: Adobe Illustrator 23.0.3, SVG Export Plug-In . SVG Version: 6.00 Build 0)  -->
<svg version="1.1" id="Layer_1" xmlns="http://www.w3.org/2000/svg" xmlns:xlink="http://www.w3.org/1999/xlink" x="0px" y="0px"
	 viewBox="0 0 27.6 47" style="enable-background:new 0 0 27.6 47;" xml:space="preserve">
<style type="text/css">
	.st0{fill:#FFFFFF;}
</style>
<g>
	<g>
		<path class="st0" d="M0.8,41c-1,1-1,2.6,0,3.6l1.5,1.5C2.8,46.7,3.4,47,4.1,47c0.7,0,1.3-0.3,1.8-0.8l20.9-20.9
			c0.5-0.5,0.8-1.1,0.7-1.8c0-0.7-0.3-1.3-0.7-1.8L5.9,0.8C5.4,0.3,4.8,0,4.1,0S2.8,0.3,2.3,0.8L0.7,2.3C0.3,2.8,0,3.4,0,4.1
			c0,0.7,0.3,1.3,0.7,1.8l17.6,17.6L0.8,41z"/>
	</g>
</g>
</svg>
