<?xml version="1.0" encoding="utf-8"?>
<!-- Generator: Adobe Illustrator 23.0.3, SVG Export Plug-In . SVG Version: 6.00 Build 0)  -->
<svg version="1.1" id="Capa_1" xmlns="http://www.w3.org/2000/svg" xmlns:xlink="http://www.w3.org/1999/xlink" x="0px" y="0px"
	 viewBox="0 0 43.5 43.5" style="enable-background:new 0 0 43.5 43.5;" xml:space="preserve">
<style type="text/css">
	.st0{fill:#C11717;}
</style>
<g>
	<g>
		<path class="st0" d="M38.6,3.8H27.4c-0.5,0-0.9,0.4-0.9,0.9s0.4,0.9,0.9,0.9h11.3c0.5,0,0.9-0.4,0.9-0.9S39.1,3.8,38.6,3.8z"/>
	</g>
</g>
<g>
	<g>
		<path class="st0" d="M39.3,4l-3.8-3.8c-0.4-0.4-1-0.4-1.3,0c-0.4,0.4-0.4,1,0,1.3l3.1,3.1l-3.1,3.1c-0.4,0.4-0.4,1,0,1.3
			c0.2,0.2,0.4,0.3,0.7,0.3c0.2,0,0.5-0.1,0.7-0.3l3.8-3.8C39.6,5,39.6,4.4,39.3,4z"/>
	</g>
</g>
<g>
	<g>
		<path class="st0" d="M14.2,3.8H2.9C2.4,3.8,2,4.2,2,4.7s0.4,0.9,0.9,0.9h11.3c0.5,0,0.9-0.4,0.9-0.9S14.7,3.8,14.2,3.8z"/>
	</g>
</g>
<g>
	<g>
		<path class="st0" d="M4.3,4.7l3.1-3.1c0.4-0.4,0.4-1,0-1.3C7-0.1,6.4-0.1,6,0.3L2.3,4c-0.4,0.4-0.4,1,0,1.3L6,9.1
			c0.2,0.2,0.4,0.3,0.7,0.3s0.5-0.1,0.7-0.3c0.4-0.4,0.4-1,0-1.3L4.3,4.7z"/>
	</g>
</g>
<g>
	<g>
		<path class="st0" d="M37.7,18.8c-0.8,0-1.5,0.2-2.1,0.6c-0.5-1.5-1.9-2.5-3.5-2.5c-0.8,0-1.5,0.2-2.1,0.6C29.4,16.1,28,15,26.4,15
			c-0.7,0-1.3,0.2-1.9,0.5V9.4c0-2.1-1.7-3.8-3.8-3.8S17,7.3,17,9.4v16l-3.3-2.4c-1.9-1.5-4.7-1.3-6.4,0.5c-1.1,1.1-1.1,2.9,0,4
			l13.4,13.4c1.6,1.6,3.7,2.5,6,2.5h4.4c5.7,0,10.3-4.6,10.3-10.3V22.5C41.4,20.5,39.8,18.8,37.7,18.8z M39.6,32.9
			c0,4.7-3.8,8.5-8.5,8.5h-4.4c-1.8,0-3.4-0.7-4.6-1.9L8.7,26c-0.4-0.4-0.4-1,0-1.3c0.6-0.6,1.4-0.9,2.1-0.9c0.6,0,1.3,0.2,1.8,0.6
			l4.8,3.6c0.3,0.2,0.7,0.2,1,0.1c0.3-0.2,0.5-0.5,0.5-0.8V9.4c0-1,0.8-1.9,1.9-1.9c1,0,1.9,0.8,1.9,1.9v14.1c0,0.5,0.4,0.9,0.9,0.9
			c0.5,0,0.9-0.4,0.9-0.9v-4.7c0-1,0.8-1.9,1.9-1.9c1,0,1.9,0.8,1.9,1.9v4.7c0,0.5,0.4,0.9,0.9,0.9c0.5,0,0.9-0.4,0.9-0.9v-2.8
			c0-1,0.8-1.9,1.9-1.9c1,0,1.9,0.8,1.9,1.9v2.8c0,0.5,0.4,0.9,0.9,0.9s0.9-0.4,0.9-0.9v-0.9c0-1,0.8-1.9,1.9-1.9s1.9,0.8,1.9,1.9
			L39.6,32.9L39.6,32.9z"/>
	</g>
</g>
</svg>
