<?xml version="1.0" encoding="utf-8"?>
<!-- Generator: Adobe Illustrator 23.0.3, SVG Export Plug-In . SVG Version: 6.00 Build 0)  -->
<svg version="1.1" id="Capa_1" xmlns="http://www.w3.org/2000/svg" xmlns:xlink="http://www.w3.org/1999/xlink" x="0px" y="0px"
	 viewBox="0 0 70.2 70.2" style="enable-background:new 0 0 70.2 70.2;" xml:space="preserve">
<style type="text/css">
	.st0{fill:#C11717;}
</style>
<g>
	<g>
		<g>
			<path class="st0" d="M70.2,39.4C70.2,39.4,70.2,39.4,70.2,39.4C70.2,39.4,70.2,39.4,70.2,39.4z"/>
			<path class="st0" d="M70.2,39.5C70.2,39.5,70.2,39.5,70.2,39.5C70.2,39.5,70.2,39.5,70.2,39.5z"/>
			<path class="st0" d="M62.7,38.5h-45c-0.6,0-1,0.5-1,1c0,0.6,0.5,1,1,1h11.9C17.4,42.9,5.6,43.8,2,44v-3.4h11.5c0.6,0,1-0.5,1-1
				c0-0.6-0.5-1-1-1H1c-0.6,0-1,0.5-1,1v21c0,0.6,0.5,1,1,1h48c0.6,0,1-0.5,1-1s-0.5-1-1-1H16.1c7.3-2.1,23.2-4.6,52-1.6v1.6h-15
				c-0.6,0-1,0.5-1,1s0.5,1,1,1h16c0.6,0,1-0.5,1-1V57c0,0,0,0,0,0c0,0,0,0,0,0v-4c0,0,0-13.5,0-13.5c0,0,0,0,0-0.1c0,0,0,0,0,0
				c0,0,0,0,0,0c0,0,0,0,0-0.1c0,0,0,0,0,0c0,0,0,0,0,0c0,0,0,0,0-0.1c0,0,0,0,0,0c0,0,0,0,0-0.1c0,0,0,0,0,0c0,0,0,0,0,0
				c0,0,0,0,0,0c0,0,0,0,0,0c0,0,0,0,0,0c0,0,0,0,0,0c0,0,0,0,0,0c0,0,0,0,0,0c0,0,0,0,0,0c0,0,0,0,0,0c0,0,0,0,0,0c0,0,0,0-0.1,0
				c0,0,0,0,0,0c0,0,0,0-0.1,0c0,0,0,0,0,0c0,0,0,0-0.1,0c0,0,0,0,0,0c0,0,0,0,0,0c0,0,0,0-0.1,0c0,0,0,0,0,0c0,0,0,0-0.1,0
				c0,0,0,0,0,0C69.1,38.5,62.7,38.5,62.7,38.5z M68.1,53.8v2c-12.7-1.3-30.4-2.3-45.2,0.1c-8,1.3-11.8,3.1-12.8,3.6H2v-1
				C3.6,57.3,8,55,15.4,53.5c5.9-1.3,12.9-2,20.6-2C45.6,51.3,56.3,52.1,68.1,53.8z M68.1,46.3L68.1,46.3c-3.9,0.8-9.8,1.5-12.2,0.5
				c0.6-0.5,2.3-1.6,6.9-3.6c2.1-0.9,4.1-1.7,5.4-2.2V46.3z M63.7,40.6c-0.7,0.3-1.4,0.6-2.2,0.9c-7.2,3.1-7.9,4.3-8,5.2
				c-0.1,0.5,0.1,1,0.6,1.4c2.9,2.2,10.8,0.9,14,0.3v3.4c-11.9-1.7-22.7-2.5-32.3-2.4c-8,0.1-15.1,0.8-21.1,2.1
				C8,53,4.1,54.9,2,56.1v-5.5c3.1-0.4,13.4-1.7,24.9-3.3c18.1-2.6,30.2-4.9,35.9-6.7H63.7L63.7,40.6z M54.3,40.6
				C37.7,44.1,8.2,47.7,2,48.5v-2.4c4.3-0.3,21.9-1.5,37-5.5L54.3,40.6L54.3,40.6z"/>
			<path class="st0" d="M70.2,39.6C70.2,39.5,70.2,39.5,70.2,39.6L70.2,39.6C70.2,39.6,70.2,39.6,70.2,39.6z"/>
		</g>
	</g>
</g>
<g>
	<g>
		<path class="st0" d="M0,10.5v3.2c0,0,0,0,0,0V25c0,0,0,0,0,0v6.5c0,0.6,0.5,1,1,1h12.2c0,0,0,0,0,0h13.9c0,0,0,0,0,0h42
			c0.6,0,1-0.5,1-1v-21c0-0.6-0.5-1-1-1H54.5c-0.6,0-1,0.5-1,1c0,0.6,0.5,1,1,1h13.6v3c-11.8,0.1-28.4-0.2-42.4-2.3
			c-1.6-0.2-3-0.5-4.3-0.7h29c0.6,0,1-0.5,1-1c0-0.6-0.5-1-1-1H13.2c0,0,0,0,0,0H1C0.4,9.5,0,9.9,0,10.5z M20.5,24.6
			c0-0.4-0.2-0.8-0.6-1.1c-0.5-0.4-1.5-1.1-10.5-0.4c-3,0.2-5.8,0.5-7.4,0.7v-1.9c3.7-0.5,18.2-2.2,25.8,1.4c1.2,0.6,1.4,1,1.4,1.1
			c0,0.1-0.3,1.6-7.9,4c-3.8,1.2-7.5,2-8.2,2.1h-2.8c0.6-0.2,1.3-0.5,1.9-0.8c7.3-2.9,8.1-4,8.2-4.9C20.5,24.8,20.5,24.7,20.5,24.6z
			 M2,30.5v-4.6c1.4-0.2,4.3-0.5,7.3-0.7c4.7-0.3,7.1-0.3,8.2-0.2c-2.1,1.2-7.4,3.4-13.2,5.5L2,30.5L2,30.5z M68.1,26.9v3.6H34.8
			C42.4,28.6,55,26.3,68.1,26.9z M68.1,24.8c-10.9-0.5-21.3,1-28.3,2.4c-7.1,1.4-11.9,2.9-12.9,3.2h-5.6v0c0.2,0,0.3-0.1,0.5-0.1
			c4.2-1.3,9.1-3.1,9.4-5.7c0-0.1,0-0.2,0-0.3c0-1.1-0.9-2.1-2.6-2.9c-3.9-1.8-9.8-2.6-17.5-2.3c-4,0.1-7.4,0.5-9.2,0.8v-4.9
			c3.2,0.6,12.3,2.3,23.3,3.9c12.3,1.8,29.6,3.8,42.8,3.2L68.1,24.8L68.1,24.8z M13.1,11.5c0.9,0.3,4.5,1.6,12.2,2.7
			c14.1,2.2,30.9,2.5,42.8,2.3V20C44.8,21,8,14,2,12.8v-1.3L13.1,11.5L13.1,11.5z"/>
	</g>
</g>
</svg>
